<mxfile host="app.diagrams.net" modified="2024-04-17T12:07:09.329Z" agent="Mozilla/5.0 (Windows NT 10.0; Win64; x64) AppleWebKit/537.36 (KHTML, like Gecko) Chrome/123.0.0.0 Safari/537.36" etag="yOUzFnL1Ddqa8iP_h_97" version="24.2.5" type="github">
  <diagram name="Page-1" id="2YBvvXClWsGukQMizWep">
    <mxGraphModel dx="2438" dy="840" grid="1" gridSize="10" guides="1" tooltips="1" connect="1" arrows="1" fold="1" page="1" pageScale="1" pageWidth="850" pageHeight="1100" math="0" shadow="0">
      <root>
        <mxCell id="0" />
        <mxCell id="1" parent="0" />
        <mxCell id="aM9ryv3xv72pqoxQDRHE-1" value=":Forecast" style="shape=umlLifeline;perimeter=lifelinePerimeter;whiteSpace=wrap;html=1;container=0;dropTarget=0;collapsible=0;recursiveResize=0;outlineConnect=0;portConstraint=eastwest;newEdgeStyle={&quot;edgeStyle&quot;:&quot;elbowEdgeStyle&quot;,&quot;elbow&quot;:&quot;vertical&quot;,&quot;curved&quot;:0,&quot;rounded&quot;:0};" parent="1" vertex="1">
          <mxGeometry x="-629.4" y="80" width="100" height="640" as="geometry" />
        </mxCell>
        <mxCell id="aM9ryv3xv72pqoxQDRHE-2" value="" style="html=1;points=[];perimeter=orthogonalPerimeter;outlineConnect=0;targetShapes=umlLifeline;portConstraint=eastwest;newEdgeStyle={&quot;edgeStyle&quot;:&quot;elbowEdgeStyle&quot;,&quot;elbow&quot;:&quot;vertical&quot;,&quot;curved&quot;:0,&quot;rounded&quot;:0};" parent="aM9ryv3xv72pqoxQDRHE-1" vertex="1">
          <mxGeometry x="45" y="120" width="10" height="250" as="geometry" />
        </mxCell>
        <mxCell id="NyAKEFEswRq_oMujqvDt-21" value="" style="html=1;points=[[0,0,0,0,5],[0,1,0,0,-5],[1,0,0,0,5],[1,1,0,0,-5]];perimeter=orthogonalPerimeter;outlineConnect=0;targetShapes=umlLifeline;portConstraint=eastwest;newEdgeStyle={&quot;curved&quot;:0,&quot;rounded&quot;:0};" vertex="1" parent="aM9ryv3xv72pqoxQDRHE-1">
          <mxGeometry x="45" y="500" width="10" height="30" as="geometry" />
        </mxCell>
        <mxCell id="aM9ryv3xv72pqoxQDRHE-5" value=":Latest data" style="shape=umlLifeline;perimeter=lifelinePerimeter;whiteSpace=wrap;html=1;container=0;dropTarget=0;collapsible=0;recursiveResize=0;outlineConnect=0;portConstraint=eastwest;newEdgeStyle={&quot;edgeStyle&quot;:&quot;elbowEdgeStyle&quot;,&quot;elbow&quot;:&quot;vertical&quot;,&quot;curved&quot;:0,&quot;rounded&quot;:0};" parent="1" vertex="1">
          <mxGeometry x="-449.4" y="80" width="100" height="640" as="geometry" />
        </mxCell>
        <mxCell id="aM9ryv3xv72pqoxQDRHE-6" value="" style="html=1;points=[];perimeter=orthogonalPerimeter;outlineConnect=0;targetShapes=umlLifeline;portConstraint=eastwest;newEdgeStyle={&quot;edgeStyle&quot;:&quot;elbowEdgeStyle&quot;,&quot;elbow&quot;:&quot;vertical&quot;,&quot;curved&quot;:0,&quot;rounded&quot;:0};" parent="aM9ryv3xv72pqoxQDRHE-5" vertex="1">
          <mxGeometry x="45" y="400" width="10" height="170" as="geometry" />
        </mxCell>
        <mxCell id="NyAKEFEswRq_oMujqvDt-2" value="" style="shape=umlLifeline;perimeter=lifelinePerimeter;whiteSpace=wrap;html=1;container=1;dropTarget=0;collapsible=0;recursiveResize=0;outlineConnect=0;portConstraint=eastwest;newEdgeStyle={&quot;curved&quot;:0,&quot;rounded&quot;:0};participant=umlActor;" vertex="1" parent="1">
          <mxGeometry x="-730" y="80" width="20" height="640" as="geometry" />
        </mxCell>
        <mxCell id="NyAKEFEswRq_oMujqvDt-3" value="" style="html=1;points=[[0,0,0,0,5],[0,1,0,0,-5],[1,0,0,0,5],[1,1,0,0,-5]];perimeter=orthogonalPerimeter;outlineConnect=0;targetShapes=umlLifeline;portConstraint=eastwest;newEdgeStyle={&quot;curved&quot;:0,&quot;rounded&quot;:0};" vertex="1" parent="NyAKEFEswRq_oMujqvDt-2">
          <mxGeometry x="5" y="120" width="10" height="480" as="geometry" />
        </mxCell>
        <mxCell id="NyAKEFEswRq_oMujqvDt-4" value="dispatch" style="html=1;verticalAlign=bottom;endArrow=block;curved=0;rounded=0;exitX=1;exitY=0;exitDx=0;exitDy=5;exitPerimeter=0;" edge="1" parent="1" source="NyAKEFEswRq_oMujqvDt-3" target="aM9ryv3xv72pqoxQDRHE-2">
          <mxGeometry width="80" relative="1" as="geometry">
            <mxPoint x="-640" y="220" as="sourcePoint" />
            <mxPoint x="-560" y="220" as="targetPoint" />
          </mxGeometry>
        </mxCell>
        <mxCell id="NyAKEFEswRq_oMujqvDt-5" value="alt" style="shape=umlFrame;whiteSpace=wrap;html=1;pointerEvents=0;" vertex="1" parent="1">
          <mxGeometry x="-650" y="140" width="320" height="520" as="geometry" />
        </mxCell>
        <mxCell id="NyAKEFEswRq_oMujqvDt-6" value="" style="endArrow=none;dashed=1;html=1;rounded=0;exitX=-0.002;exitY=0.774;exitDx=0;exitDy=0;exitPerimeter=0;entryX=0.995;entryY=0.776;entryDx=0;entryDy=0;entryPerimeter=0;" edge="1" parent="1" source="NyAKEFEswRq_oMujqvDt-5" target="NyAKEFEswRq_oMujqvDt-5">
          <mxGeometry width="50" height="50" relative="1" as="geometry">
            <mxPoint x="-489.4" y="280" as="sourcePoint" />
            <mxPoint x="-329.4" y="241" as="targetPoint" />
          </mxGeometry>
        </mxCell>
        <mxCell id="NyAKEFEswRq_oMujqvDt-8" value="[Available]" style="text;html=1;align=center;verticalAlign=middle;whiteSpace=wrap;rounded=0;" vertex="1" parent="1">
          <mxGeometry x="-650" y="210" width="60" height="30" as="geometry" />
        </mxCell>
        <mxCell id="NyAKEFEswRq_oMujqvDt-9" value="forecast data" style="html=1;verticalAlign=bottom;endArrow=open;dashed=1;endSize=8;curved=0;rounded=0;exitX=0.44;exitY=0.13;exitDx=0;exitDy=0;exitPerimeter=0;" edge="1" parent="1">
          <mxGeometry relative="1" as="geometry">
            <mxPoint x="-580" y="258.6" as="sourcePoint" />
            <mxPoint x="-715" y="258.6" as="targetPoint" />
          </mxGeometry>
        </mxCell>
        <mxCell id="NyAKEFEswRq_oMujqvDt-10" value="opt" style="shape=umlFrame;whiteSpace=wrap;html=1;pointerEvents=0;" vertex="1" parent="1">
          <mxGeometry x="-800" y="290" width="290" height="140" as="geometry" />
        </mxCell>
        <mxCell id="NyAKEFEswRq_oMujqvDt-11" value="[Lke]" style="text;html=1;align=center;verticalAlign=middle;whiteSpace=wrap;rounded=0;" vertex="1" parent="1">
          <mxGeometry x="-740" y="290" width="60" height="30" as="geometry" />
        </mxCell>
        <mxCell id="NyAKEFEswRq_oMujqvDt-12" value="Like forecast" style="html=1;verticalAlign=bottom;endArrow=block;curved=0;rounded=0;" edge="1" parent="1" target="aM9ryv3xv72pqoxQDRHE-2">
          <mxGeometry width="80" relative="1" as="geometry">
            <mxPoint x="-710" y="330" as="sourcePoint" />
            <mxPoint x="-620" y="330" as="targetPoint" />
          </mxGeometry>
        </mxCell>
        <mxCell id="NyAKEFEswRq_oMujqvDt-13" value="opt" style="shape=umlFrame;whiteSpace=wrap;html=1;pointerEvents=0;" vertex="1" parent="1">
          <mxGeometry x="-780" y="340" width="240" height="80" as="geometry" />
        </mxCell>
        <mxCell id="NyAKEFEswRq_oMujqvDt-14" value="[is liked]" style="text;html=1;align=center;verticalAlign=middle;whiteSpace=wrap;rounded=0;" vertex="1" parent="1">
          <mxGeometry x="-740" y="360" width="60" height="30" as="geometry" />
        </mxCell>
        <mxCell id="NyAKEFEswRq_oMujqvDt-16" value="Dislike forecast" style="html=1;verticalAlign=bottom;endArrow=block;curved=0;rounded=0;exitX=1.5;exitY=0.263;exitDx=0;exitDy=0;exitPerimeter=0;" edge="1" parent="1">
          <mxGeometry width="80" relative="1" as="geometry">
            <mxPoint x="-710" y="398.9799999999999" as="sourcePoint" />
            <mxPoint x="-584.4000000000001" y="398.9799999999999" as="targetPoint" />
          </mxGeometry>
        </mxCell>
        <mxCell id="NyAKEFEswRq_oMujqvDt-17" value="no data available" style="html=1;verticalAlign=bottom;endArrow=open;dashed=1;endSize=8;curved=0;rounded=0;" edge="1" parent="1">
          <mxGeometry relative="1" as="geometry">
            <mxPoint x="-579.4000000000001" y="580" as="sourcePoint" />
            <mxPoint x="-710" y="580" as="targetPoint" />
          </mxGeometry>
        </mxCell>
        <mxCell id="NyAKEFEswRq_oMujqvDt-19" value="dispatch" style="html=1;verticalAlign=bottom;endArrow=block;curved=0;rounded=0;" edge="1" parent="1" target="aM9ryv3xv72pqoxQDRHE-6">
          <mxGeometry width="80" relative="1" as="geometry">
            <mxPoint x="-720.9285714285716" y="480" as="sourcePoint" />
            <mxPoint x="-480" y="490" as="targetPoint" />
          </mxGeometry>
        </mxCell>
        <mxCell id="NyAKEFEswRq_oMujqvDt-20" value="latest air quality mean data" style="html=1;verticalAlign=bottom;endArrow=open;dashed=1;endSize=8;curved=0;rounded=0;exitX=0.44;exitY=0.13;exitDx=0;exitDy=0;exitPerimeter=0;" edge="1" parent="1">
          <mxGeometry relative="1" as="geometry">
            <mxPoint x="-405" y="520" as="sourcePoint" />
            <mxPoint x="-710" y="520" as="targetPoint" />
          </mxGeometry>
        </mxCell>
        <mxCell id="NyAKEFEswRq_oMujqvDt-22" value="no data available" style="html=1;verticalAlign=bottom;endArrow=open;dashed=1;endSize=8;curved=0;rounded=0;exitX=0.44;exitY=0.941;exitDx=0;exitDy=0;exitPerimeter=0;" edge="1" parent="1" source="aM9ryv3xv72pqoxQDRHE-6">
          <mxGeometry relative="1" as="geometry">
            <mxPoint x="-418.4000000000001" y="640" as="sourcePoint" />
            <mxPoint x="-714" y="640" as="targetPoint" />
          </mxGeometry>
        </mxCell>
        <mxCell id="NyAKEFEswRq_oMujqvDt-23" value="User" style="text;html=1;align=center;verticalAlign=middle;whiteSpace=wrap;rounded=0;" vertex="1" parent="1">
          <mxGeometry x="-750" y="50" width="60" height="30" as="geometry" />
        </mxCell>
      </root>
    </mxGraphModel>
  </diagram>
</mxfile>
